ffmpeg started on 2025-06-23 at 20:12:34
Report written to "D:\Convert\FFMetrics\reports\psnr_report-6.txt"
Log level: 32
Command line:
ffmpeg -hide_banner -nostdin -i "G:\\\xc0\xed\xe8\xec\xe5\\[\xd2\xee\xef-4]\\\xcc\xee\xe6\xe5\xf2, \xff \xe2\xf1\xf2\xf0\xe5\xf7\xf3 \xf2\xe5\xe1\xff \xe2 \xef\xee\xe4\xe7\xe5\xec\xe5\xeb\xfc\xe5\\\xd2\xc2-1\\DanMachi_[08]_[AniLibria_TV]_[HDTVRip_720p]_HEVC.mkv" -i "G:\\\xc0\xed\xe8\xec\xe5\\[\xd2\xee\xef-4]\\\xcc\xee\xe6\xe5\xf2, \xff \xe2\xf1\xf2\xf0\xe5\xf7\xf3 \xf2\xe5\xe1\xff \xe2 \xef\xee\xe4\xe7\xe5\xec\xe5\xeb\xfc\xe5\\\xd2\xc2-1\\DanMachi_[08]_[AniLibria_TV]_[HDTVRip_720p].mkv" -lavfi "[0:v]settb=AVTB,setpts=PTS-STARTPTS,format=pix_fmts=yuv420p10,fps=24000/1001,scale=1280:720:flags=bicubic[main];[1:v]settb=AVTB,setpts=PTS-STARTPTS,format=pix_fmts=yuv420p,fps=24000/1001,scale=1280:720:flags=bicubic[ref];[main][ref]psnr=eof_action=endall:stats_file='D\\:/Convert/FFMetrics/logs/psnr_logfile-6.txt'" -f null -
Input #0, matroska,webm, from 'G:\Аниме\[Топ-4]\Может, я встречу тебя в подземелье\ТВ-1\DanMachi_[08]_[AniLibria_TV]_[HDTVRip_720p]_HEVC.mkv':
  Metadata:
    ENCODER         : Lavf61.7.100
  Duration: 00:23:41.42, start: -0.021000, bitrate: 826 kb/s
  Stream #0:0(jpn): Video: hevc (Main 10), yuv420p10le(tv, bt709, progressive), 1280x720 [SAR 1:1 DAR 16:9], 23.98 fps, 23.98 tbr, 1k tbn (default)
      Metadata:
        title           : [HorribleSubs]
        ENCODER         : Lavc61.19.100 libx265
        BPS             : 628607
        DURATION        : 00:23:41.379708375
        NUMBER_OF_FRAMES: 34079
        NUMBER_OF_BYTES : 111686250
        _STATISTICS_WRITING_APP: mkvpropedit v66.0.0 ('Josie') 64-bit
        _STATISTICS_WRITING_DATE_UTC: 2025-06-23 08:37:40
        _STATISTICS_TAGS: BPS DURATION NUMBER_OF_FRAMES NUMBER_OF_BYTES
  Stream #0:1(rus): Audio: aac (LC), 48000 Hz, stereo, fltp (default)
      Metadata:
        title           : Metacarmex & Say
        ENCODER         : Lavc61.19.100 aac
        BPS             : 193757
        DURATION        : 00:23:41.397000000
        NUMBER_OF_FRAMES: 66629
        NUMBER_OF_BYTES : 34425714
        _STATISTICS_WRITING_APP: mkvpropedit v66.0.0 ('Josie') 64-bit
        _STATISTICS_WRITING_DATE_UTC: 2025-06-23 08:37:40
        _STATISTICS_TAGS: BPS DURATION NUMBER_OF_FRAMES NUMBER_OF_BYTES
  Stream #0:2(rus): Subtitle: ass (ssa) (default)
      Metadata:
        title           : Надписи
        BPS             : 2
        DURATION        : 00:22:19.670000000
        NUMBER_OF_FRAMES: 4
        NUMBER_OF_BYTES : 384
        _STATISTICS_WRITING_APP: mkvpropedit v66.0.0 ('Josie') 64-bit
        _STATISTICS_WRITING_DATE_UTC: 2025-06-23 08:37:40
        _STATISTICS_TAGS: BPS DURATION NUMBER_OF_FRAMES NUMBER_OF_BYTES
  Stream #0:3(rus): Subtitle: ass (ssa)
      Metadata:
        title           : Полные
        BPS             : 102
        DURATION        : 00:23:37.600000000
        NUMBER_OF_FRAMES: 264
        NUMBER_OF_BYTES : 18133
        _STATISTICS_WRITING_APP: mkvpropedit v66.0.0 ('Josie') 64-bit
        _STATISTICS_WRITING_DATE_UTC: 2025-06-23 08:37:40
        _STATISTICS_TAGS: BPS DURATION NUMBER_OF_FRAMES NUMBER_OF_BYTES
Input #1, matroska,webm, from 'G:\Аниме\[Топ-4]\Может, я встречу тебя в подземелье\ТВ-1\DanMachi_[08]_[AniLibria_TV]_[HDTVRip_720p].mkv':
  Metadata:
    encoder         : libebml v1.4.2 + libmatroska v1.6.4
    creation_time   : 2025-01-15T07:20:18.000000Z
  Duration: 00:23:41.40, start: 0.000000, bitrate: 1970 kb/s
  Stream #1:0(jpn): Video: h264 (High), yuv420p(progressive), 1280x720, SAR 1:1 DAR 16:9, 23.98 fps, 23.98 tbr, 1k tbn (default)
      Metadata:
        title           : [HorribleSubs]
        BPS             : 1772537
        DURATION        : 00:23:41.380000000
        NUMBER_OF_FRAMES: 34079
        NUMBER_OF_BYTES : 314931251
        _STATISTICS_WRITING_APP: mkvmerge v66.0.0 ('Josie') 64-bit
        _STATISTICS_WRITING_DATE_UTC: 2025-01-15 07:20:18
        _STATISTICS_TAGS: BPS DURATION NUMBER_OF_FRAMES NUMBER_OF_BYTES
  Stream #1:1(rus): Audio: aac (LC), 48000 Hz, stereo, fltp (default)
      Metadata:
        title           : Metacarmex & Say
        BPS             : 192091
        DURATION        : 00:23:41.397000000
        NUMBER_OF_FRAMES: 66628
        NUMBER_OF_BYTES : 34129819
        _STATISTICS_WRITING_APP: mkvmerge v66.0.0 ('Josie') 64-bit
        _STATISTICS_WRITING_DATE_UTC: 2025-01-15 07:20:18
        _STATISTICS_TAGS: BPS DURATION NUMBER_OF_FRAMES NUMBER_OF_BYTES
  Stream #1:2(rus): Subtitle: ass (ssa) (default)
      Metadata:
        title           : Надписи
        BPS             : 2
        DURATION        : 00:22:19.670000000
        NUMBER_OF_FRAMES: 4
        NUMBER_OF_BYTES : 384
        _STATISTICS_WRITING_APP: mkvmerge v66.0.0 ('Josie') 64-bit
        _STATISTICS_WRITING_DATE_UTC: 2025-01-15 07:20:18
        _STATISTICS_TAGS: BPS DURATION NUMBER_OF_FRAMES NUMBER_OF_BYTES
  Stream #1:3(rus): Subtitle: ass (ssa)
      Metadata:
        title           : Полные
        BPS             : 102
        DURATION        : 00:23:37.600000000
        NUMBER_OF_FRAMES: 264
        NUMBER_OF_BYTES : 18133
        _STATISTICS_WRITING_APP: mkvmerge v66.0.0 ('Josie') 64-bit
        _STATISTICS_WRITING_DATE_UTC: 2025-01-15 07:20:18
        _STATISTICS_TAGS: BPS DURATION NUMBER_OF_FRAMES NUMBER_OF_BYTES
  Stream #1:4: Attachment: ttf
      Metadata:
        filename        : ChinaCyr.ttf
        mimetype        : application/x-truetype-font
  Stream #1:5: Attachment: ttf
      Metadata:
        filename        : TkhO4vNj.ttf
        mimetype        : application/x-truetype-font
  Stream #1:6: Attachment: ttf
      Metadata:
        filename        : bonzai.ttf
        mimetype        : application/x-truetype-font
  Stream #1:7: Attachment: ttf
      Metadata:
        filename        : OpenSans-Semibold.ttf
        mimetype        : application/x-truetype-font
Stream mapping:
  Stream #0:0 (hevc) -> settb:default
  Stream #1:0 (h264) -> settb:default
  psnr:default -> Stream #0:0 (wrapped_avframe)
  Stream #0:1 -> #0:1 (aac (native) -> pcm_s16le (native))
[swscaler @ 0000024480689900] No accelerated colorspace conversion found from yuv420p to bgr48le.
[swscaler @ 0000024480853000] No accelerated colorspace conversion found from yuv420p to bgr48le.
[swscaler @ 0000024480938400] No accelerated colorspace conversion found from yuv420p to bgr48le.
[swscaler @ 0000024480b065c0] No accelerated colorspace conversion found from yuv420p to bgr48le.
[swscaler @ 0000024480badf80] No accelerated colorspace conversion found from yuv420p to bgr48le.
[swscaler @ 0000024480ce1180] No accelerated colorspace conversion found from yuv420p to bgr48le.
[swscaler @ 0000024480d5f040] No accelerated colorspace conversion found from yuv420p to bgr48le.
[swscaler @ 0000024480dc4740] No accelerated colorspace conversion found from yuv420p to bgr48le.
[swscaler @ 0000024480e27040] No accelerated colorspace conversion found from yuv420p to bgr48le.
[swscaler @ 0000024480eaabc0] No accelerated colorspace conversion found from yuv420p to bgr48le.
[swscaler @ 0000024480f14040] No accelerated colorspace conversion found from yuv420p to bgr48le.
[swscaler @ 0000024480f88840] No accelerated colorspace conversion found from yuv420p to bgr48le.
[swscaler @ 0000024480fa3040] No accelerated colorspace conversion found from yuv420p to bgr48le.
[swscaler @ 0000024484b34040] No accelerated colorspace conversion found from yuv420p to bgr48le.
[swscaler @ 0000024484b99040] No accelerated colorspace conversion found from yuv420p to bgr48le.
[swscaler @ 0000024484c04040] No accelerated colorspace conversion found from yuv420p to bgr48le.
Output #0, null, to 'pipe:':
  Metadata:
    encoder         : Lavf61.7.100
  Stream #0:0: Video: wrapped_avframe, yuv420p10le(tv, bt709, progressive), 1280x720 [SAR 1:1 DAR 16:9], q=2-31, 200 kb/s, 23.98 fps, 23.98 tbn
      Metadata:
        encoder         : Lavc61.19.100 wrapped_avframe
  Stream #0:1(rus): Audio: pcm_s16le, 48000 Hz, stereo, s16, 1536 kb/s (default)
      Metadata:
        title           : Metacarmex & Say
        _STATISTICS_TAGS: BPS DURATION NUMBER_OF_FRAMES NUMBER_OF_BYTES
        BPS             : 193757
        DURATION        : 00:23:41.397000000
        NUMBER_OF_FRAMES: 66629
        NUMBER_OF_BYTES : 34425714
        _STATISTICS_WRITING_APP: mkvpropedit v66.0.0 ('Josie') 64-bit
        _STATISTICS_WRITING_DATE_UTC: 2025-06-23 08:37:40
        encoder         : Lavc61.19.100 pcm_s16le
frame=   78 fps=0.0 q=-0.0 size=N/A time=00:00:03.25 bitrate=N/A speed=6.38x    frame=  182 fps=176 q=-0.0 size=N/A time=00:00:07.59 bitrate=N/A speed=7.33x    frame=  276 fps=179 q=-0.0 size=N/A time=00:00:11.51 bitrate=N/A speed=7.45x    frame=  366 fps=177 q=-0.0 size=N/A time=00:00:15.26 bitrate=N/A speed=7.38x    frame=  459 fps=178 q=-0.0 size=N/A time=00:00:19.14 bitrate=N/A speed=7.43x    frame=  562 fps=182 q=-0.0 size=N/A time=00:00:23.44 bitrate=N/A speed=7.59x    frame=  658 fps=182 q=-0.0 size=N/A time=00:00:27.44 bitrate=N/A speed=7.59x    frame=  757 fps=184 q=-0.0 size=N/A time=00:00:31.57 bitrate=N/A speed=7.66x    frame=  861 fps=186 q=-0.0 size=N/A time=00:00:35.91 bitrate=N/A speed=7.75x    frame=  956 fps=185 q=-0.0 size=N/A time=00:00:39.87 bitrate=N/A speed=7.73x    frame= 1058 fps=187 q=-0.0 size=N/A time=00:00:44.12 bitrate=N/A speed=7.78x    frame= 1155 fps=187 q=-0.0 size=N/A time=00:00:48.17 bitrate=N/A speed=7.78x    frame= 1254 fps=187 q=-0.0 size=N/A time=00:00:52.30 bitrate=N/A speed= 7.8x    frame= 1351 fps=187 q=-0.0 size=N/A time=00:00:56.34 bitrate=N/A speed=7.81x    frame= 1451 fps=187 q=-0.0 size=N/A time=00:01:00.51 bitrate=N/A speed=7.82x    frame= 1549 fps=188 q=-0.0 size=N/A time=00:01:04.60 bitrate=N/A speed=7.83x    frame= 1646 fps=188 q=-0.0 size=N/A time=00:01:08.65 bitrate=N/A speed=7.83x    frame= 1743 fps=188 q=-0.0 size=N/A time=00:01:12.69 bitrate=N/A speed=7.84x    frame= 1848 fps=189 q=-0.0 size=N/A time=00:01:17.07 bitrate=N/A speed=7.87x    frame= 1945 fps=189 q=-0.0 size=N/A time=00:01:21.12 bitrate=N/A speed=7.87x    frame= 2049 fps=189 q=-0.0 size=N/A time=00:01:25.46 bitrate=N/A speed=7.89x    frame= 2146 fps=189 q=-0.0 size=N/A time=00:01:29.50 bitrate=N/A speed=7.89x    frame= 2242 fps=189 q=-0.0 size=N/A time=00:01:33.51 bitrate=N/A speed=7.89x    frame= 2344 fps=189 q=-0.0 size=N/A time=00:01:37.76 bitrate=N/A speed= 7.9x    frame= 2444 fps=189 q=-0.0 size=N/A time=00:01:41.93 bitrate=N/A speed= 7.9x    frame= 2540 fps=189 q=-0.0 size=N/A time=00:01:45.93 bitrate=N/A speed= 7.9x    frame= 2639 fps=189 q=-0.0 size=N/A time=00:01:50.06 bitrate=N/A speed= 7.9x    frame= 2736 fps=189 q=-0.0 size=N/A time=00:01:54.11 bitrate=N/A speed=7.89x    frame= 2829 fps=189 q=-0.0 size=N/A time=00:01:57.99 bitrate=N/A speed=7.88x    frame= 2921 fps=189 q=-0.0 size=N/A time=00:02:01.83 bitrate=N/A speed=7.87x    frame= 3020 fps=189 q=-0.0 size=N/A time=00:02:05.95 bitrate=N/A speed=7.87x    frame= 3110 fps=188 q=-0.0 size=N/A time=00:02:09.71 bitrate=N/A speed=7.86x    frame= 3214 fps=189 q=-0.0 size=N/A time=00:02:14.05 bitrate=N/A speed=7.87x    frame= 3308 fps=189 q=-0.0 size=N/A time=00:02:17.97 bitrate=N/A speed=7.86x    frame= 3409 fps=189 q=-0.0 size=N/A time=00:02:22.18 bitrate=N/A speed=7.87x    frame= 3507 fps=189 q=-0.0 size=N/A time=00:02:26.27 bitrate=N/A speed=7.87x    frame= 3604 fps=189 q=-0.0 size=N/A time=00:02:30.31 bitrate=N/A speed=7.87x    frame= 3701 fps=189 q=-0.0 size=N/A time=00:02:34.36 bitrate=N/A speed=7.87x    frame= 3793 fps=188 q=-0.0 size=N/A time=00:02:38.19 bitrate=N/A speed=7.86x    frame= 3890 fps=188 q=-0.0 size=N/A time=00:02:42.24 bitrate=N/A speed=7.86x    frame= 3980 fps=188 q=-0.0 size=N/A time=00:02:45.99 bitrate=N/A speed=7.84x    frame= 4079 fps=188 q=-0.0 size=N/A time=00:02:50.12 bitrate=N/A speed=7.85x    frame= 4177 fps=188 q=-0.0 size=N/A time=00:02:54.21 bitrate=N/A speed=7.85x    frame= 4279 fps=188 q=-0.0 size=N/A time=00:02:58.46 bitrate=N/A speed=7.86x    frame= 4382 fps=189 q=-0.0 size=N/A time=00:03:02.76 bitrate=N/A speed=7.87x    frame= 4478 fps=189 q=-0.0 size=N/A time=00:03:06.76 bitrate=N/A speed=7.87x    frame= 4583 fps=189 q=-0.0 size=N/A time=00:03:11.14 bitrate=N/A speed=7.88x    frame= 4687 fps=189 q=-0.0 size=N/A time=00:03:15.48 bitrate=N/A speed=7.89x    frame= 4787 fps=189 q=-0.0 size=N/A time=00:03:19.65 bitrate=N/A speed= 7.9x    frame= 4885 fps=189 q=-0.0 size=N/A time=00:03:23.74 bitrate=N/A speed= 7.9x    frame= 4985 fps=189 q=-0.0 size=N/A time=00:03:27.91 bitrate=N/A speed= 7.9x    frame= 5083 fps=190 q=-0.0 size=N/A time=00:03:32.00 bitrate=N/A speed= 7.9x    frame= 5185 fps=190 q=-0.0 size=N/A time=00:03:36.25 bitrate=N/A speed=7.91x    frame= 5282 fps=190 q=-0.0 size=N/A time=00:03:40.30 bitrate=N/A speed=7.91x    frame= 5384 fps=190 q=-0.0 size=N/A time=00:03:44.55 bitrate=N/A speed=7.91x    frame= 5483 fps=190 q=-0.0 size=N/A time=00:03:48.68 bitrate=N/A speed=7.91x    frame= 5582 fps=190 q=-0.0 size=N/A time=00:03:52.81 bitrate=N/A speed=7.91x    frame= 5676 fps=190 q=-0.0 size=N/A time=00:03:56.73 bitrate=N/A speed=7.91x    frame= 5766 fps=189 q=-0.0 size=N/A time=00:04:00.49 bitrate=N/A speed= 7.9x    frame= 5870 fps=190 q=-0.0 size=N/A time=00:04:04.82 bitrate=N/A speed= 7.9x    frame= 5968 fps=190 q=-0.0 size=N/A time=00:04:08.91 bitrate=N/A speed=7.91x    frame= 6067 fps=190 q=-0.0 size=N/A time=00:04:13.04 bitrate=N/A speed=7.91x    frame= 6168 fps=190 q=-0.0 size=N/A time=00:04:17.25 bitrate=N/A speed=7.91x    frame= 6263 fps=190 q=-0.0 size=N/A time=00:04:21.21 bitrate=N/A speed=7.91x    frame= 6365 fps=190 q=-0.0 size=N/A time=00:04:25.47 bitrate=N/A speed=7.91x    frame= 6461 fps=190 q=-0.0 size=N/A time=00:04:29.47 bitrate=N/A speed=7.91x    frame= 6562 fps=190 q=-0.0 size=N/A time=00:04:33.69 bitrate=N/A speed=7.92x    frame= 6662 fps=190 q=-0.0 size=N/A time=00:04:37.86 bitrate=N/A speed=7.92x    frame= 6766 fps=190 q=-0.0 size=N/A time=00:04:42.19 bitrate=N/A speed=7.92x    frame= 6866 fps=190 q=-0.0 size=N/A time=00:04:46.36 bitrate=N/A speed=7.93x    frame= 6967 fps=190 q=-0.0 size=N/A time=00:04:50.58 bitrate=N/A speed=7.93x    frame= 7054 fps=190 q=-0.0 size=N/A time=00:04:54.21 bitrate=N/A speed=7.92x    frame= 7163 fps=190 q=-0.0 size=N/A time=00:04:58.75 bitrate=N/A speed=7.93x    frame= 7260 fps=190 q=-0.0 size=N/A time=00:05:02.80 bitrate=N/A speed=7.93x    frame= 7361 fps=190 q=-0.0 size=N/A time=00:05:07.01 bitrate=N/A speed=7.93x    frame= 7461 fps=190 q=-0.0 size=N/A time=00:05:11.18 bitrate=N/A speed=7.93x    frame= 7565 fps=190 q=-0.0 size=N/A time=00:05:15.52 bitrate=N/A speed=7.94x    frame= 7673 fps=191 q=-0.0 size=N/A time=00:05:20.02 bitrate=N/A speed=7.95x    frame= 7772 fps=191 q=-0.0 size=N/A time=00:05:24.15 bitrate=N/A speed=7.95x    frame= 7875 fps=191 q=-0.0 size=N/A time=00:05:28.45 bitrate=N/A speed=7.96x    frame= 7962 fps=191 q=-0.0 size=N/A time=00:05:32.12 bitrate=N/A speed=7.95x    frame= 8077 fps=191 q=-0.0 size=N/A time=00:05:36.87 bitrate=N/A speed=7.96x    frame= 8176 fps=191 q=-0.0 size=N/A time=00:05:41.00 bitrate=N/A speed=7.96x    frame= 8277 fps=191 q=-0.0 size=N/A time=00:05:45.21 bitrate=N/A speed=7.96x    frame= 8378 fps=191 q=-0.0 size=N/A time=00:05:49.43 bitrate=N/A speed=7.97x    frame= 8473 fps=191 q=-0.0 size=N/A time=00:05:53.39 bitrate=N/A speed=7.97x    frame= 8580 fps=191 q=-0.0 size=N/A time=00:05:57.85 bitrate=N/A speed=7.97x    frame= 8673 fps=191 q=-0.0 size=N/A time=00:06:01.73 bitrate=N/A speed=7.97x    frame= 8788 fps=191 q=-0.0 size=N/A time=00:06:06.53 bitrate=N/A speed=7.98x    frame= 8882 fps=191 q=-0.0 size=N/A time=00:06:10.45 bitrate=N/A speed=7.98x    frame= 8978 fps=191 q=-0.0 size=N/A time=00:06:14.45 bitrate=N/A speed=7.98x    frame= 9080 fps=191 q=-0.0 size=N/A time=00:06:18.71 bitrate=N/A speed=7.98x    frame= 9181 fps=191 q=-0.0 size=N/A time=00:06:22.92 bitrate=N/A speed=7.98x    frame= 9279 fps=191 q=-0.0 size=N/A time=00:06:27.01 bitrate=N/A speed=7.98x    frame= 9378 fps=191 q=-0.0 size=N/A time=00:06:31.14 bitrate=N/A speed=7.98x    frame= 9485 fps=191 q=-0.0 size=N/A time=00:06:35.60 bitrate=N/A speed=7.99x    frame= 9587 fps=192 q=-0.0 size=N/A time=00:06:39.85 bitrate=N/A speed=7.99x    frame= 9687 fps=192 q=-0.0 size=N/A time=00:06:44.02 bitrate=N/A speed=7.99x    frame= 9785 fps=192 q=-0.0 size=N/A time=00:06:48.11 bitrate=N/A speed=7.99x    frame= 9883 fps=192 q=-0.0 size=N/A time=00:06:52.20 bitrate=N/A speed=7.99x    frame= 9983 fps=192 q=-0.0 size=N/A time=00:06:56.37 bitrate=N/A speed=7.99x    frame=10077 fps=191 q=-0.0 size=N/A time=00:07:00.29 bitrate=N/A speed=7.99x    frame=10176 fps=191 q=-0.0 size=N/A time=00:07:04.42 bitrate=N/A speed=7.99x    frame=10275 fps=192 q=-0.0 size=N/A time=00:07:08.55 bitrate=N/A speed=7.99x    frame=10376 fps=192 q=-0.0 size=N/A time=00:07:12.76 bitrate=N/A speed=7.99x    frame=10476 fps=192 q=-0.0 size=N/A time=00:07:16.93 bitrate=N/A speed=7.99x    frame=10577 fps=192 q=-0.0 size=N/A time=00:07:21.14 bitrate=N/A speed=7.99x    frame=10679 fps=192 q=-0.0 size=N/A time=00:07:25.40 bitrate=N/A speed=7.99x    frame=10770 fps=192 q=-0.0 size=N/A time=00:07:29.19 bitrate=N/A speed=7.99x    frame=10872 fps=192 q=-0.0 size=N/A time=00:07:33.45 bitrate=N/A speed=7.99x    frame=10971 fps=192 q=-0.0 size=N/A time=00:07:37.58 bitrate=N/A speed=7.99x    frame=11071 fps=192 q=-0.0 size=N/A time=00:07:41.75 bitrate=N/A speed=7.99x    frame=11170 fps=192 q=-0.0 size=N/A time=00:07:45.88 bitrate=N/A speed=7.99x    frame=11260 fps=191 q=-0.0 size=N/A time=00:07:49.63 bitrate=N/A speed=7.98x    frame=11367 fps=192 q=-0.0 size=N/A time=00:07:54.09 bitrate=N/A speed=7.99x    frame=11456 fps=191 q=-0.0 size=N/A time=00:07:57.81 bitrate=N/A speed=7.99x    frame=11566 fps=192 q=-0.0 size=N/A time=00:08:02.39 bitrate=N/A speed=7.99x    frame=11653 fps=191 q=-0.0 size=N/A time=00:08:06.02 bitrate=N/A speed=7.98x    frame=11764 fps=192 q=-0.0 size=N/A time=00:08:10.65 bitrate=N/A speed=7.99x    frame=11860 fps=192 q=-0.0 size=N/A time=00:08:14.66 bitrate=N/A speed=7.99x    frame=11955 fps=192 q=-0.0 size=N/A time=00:08:18.62 bitrate=N/A speed=7.99x    frame=12052 fps=192 q=-0.0 size=N/A time=00:08:22.66 bitrate=N/A speed=7.99x    frame=12155 fps=192 q=-0.0 size=N/A time=00:08:26.96 bitrate=N/A speed=7.99x    frame=12254 fps=192 q=-0.0 size=N/A time=00:08:31.09 bitrate=N/A speed=7.99x    frame=12357 fps=192 q=-0.0 size=N/A time=00:08:35.43 bitrate=N/A speed=7.99x    frame=12458 fps=192 q=-0.0 size=N/A time=00:08:39.60 bitrate=N/A speed=7.99x    frame=12553 fps=192 q=-0.0 size=N/A time=00:08:43.56 bitrate=N/A speed=7.99x    frame=12656 fps=192 q=-0.0 size=N/A time=00:08:47.86 bitrate=N/A speed=7.99x    frame=12753 fps=192 q=-0.0 size=N/A time=00:08:51.90 bitrate=N/A speed=7.99x    frame=12847 fps=192 q=-0.0 size=N/A time=00:08:55.82 bitrate=N/A speed=7.99x    frame=12940 fps=191 q=-0.0 size=N/A time=00:08:59.70 bitrate=N/A speed=7.99x    frame=13042 fps=192 q=-0.0 size=N/A time=00:09:03.96 bitrate=N/A speed=7.99x    frame=13142 fps=192 q=-0.0 size=N/A time=00:09:08.13 bitrate=N/A speed=7.99x    frame=13234 fps=191 q=-0.0 size=N/A time=00:09:11.96 bitrate=N/A speed=7.98x    frame=13348 fps=192 q=-0.0 size=N/A time=00:09:16.72 bitrate=N/A speed=7.99x    frame=13451 fps=192 q=-0.0 size=N/A time=00:09:21.01 bitrate=N/A speed=   8x    frame=13554 fps=192 q=-0.0 size=N/A time=00:09:25.31 bitrate=N/A speed=   8x    frame=13652 fps=192 q=-0.0 size=N/A time=00:09:29.40 bitrate=N/A speed=   8x    frame=13759 fps=192 q=-0.0 size=N/A time=00:09:33.86 bitrate=N/A speed=   8x    frame=13856 fps=192 q=-0.0 size=N/A time=00:09:37.91 bitrate=N/A speed=   8x    frame=13957 fps=192 q=-0.0 size=N/A time=00:09:42.12 bitrate=N/A speed=   8x    frame=14043 fps=192 q=-0.0 size=N/A time=00:09:45.71 bitrate=N/A speed=   8x    frame=14158 fps=192 q=-0.0 size=N/A time=00:09:50.50 bitrate=N/A speed=8.01x    frame=14260 fps=192 q=-0.0 size=N/A time=00:09:54.76 bitrate=N/A speed=8.01x    frame=14361 fps=192 q=-0.0 size=N/A time=00:09:58.97 bitrate=N/A speed=8.01x    frame=14466 fps=192 q=-0.0 size=N/A time=00:10:03.35 bitrate=N/A speed=8.01x    frame=14566 fps=192 q=-0.0 size=N/A time=00:10:07.52 bitrate=N/A speed=8.01x    frame=14656 fps=192 q=-0.0 size=N/A time=00:10:11.27 bitrate=N/A speed=8.01x    frame=14753 fps=192 q=-0.0 size=N/A time=00:10:15.32 bitrate=N/A speed=8.01x    frame=14851 fps=192 q=-0.0 size=N/A time=00:10:19.41 bitrate=N/A speed=8.01x    frame=14947 fps=192 q=-0.0 size=N/A time=00:10:23.41 bitrate=N/A speed=   8x    frame=15046 fps=192 q=-0.0 size=N/A time=00:10:27.54 bitrate=N/A speed=   8x    frame=15138 fps=192 q=-0.0 size=N/A time=00:10:31.38 bitrate=N/A speed=   8x    frame=15246 fps=192 q=-0.0 size=N/A time=00:10:35.88 bitrate=N/A speed=8.01x    frame=15336 fps=192 q=-0.0 size=N/A time=00:10:39.63 bitrate=N/A speed=   8x    frame=15455 fps=192 q=-0.0 size=N/A time=00:10:44.60 bitrate=N/A speed=8.01x    frame=15555 fps=192 q=-0.0 size=N/A time=00:10:48.77 bitrate=N/A speed=8.01x    frame=15646 fps=192 q=-0.0 size=N/A time=00:10:52.56 bitrate=N/A speed=8.01x    frame=15745 fps=192 q=-0.0 size=N/A time=00:10:56.69 bitrate=N/A speed=8.01x    frame=15833 fps=192 q=-0.0 size=N/A time=00:11:00.36 bitrate=N/A speed=   8x    frame=15932 fps=192 q=-0.0 size=N/A time=00:11:04.49 bitrate=N/A speed=   8x    frame=16033 fps=192 q=-0.0 size=N/A time=00:11:08.70 bitrate=N/A speed=   8x    frame=16132 fps=192 q=-0.0 size=N/A time=00:11:12.83 bitrate=N/A speed=   8x    frame=16229 fps=192 q=-0.0 size=N/A time=00:11:16.88 bitrate=N/A speed=   8x    frame=16332 fps=192 q=-0.0 size=N/A time=00:11:21.18 bitrate=N/A speed=   8x    frame=16420 fps=192 q=-0.0 size=N/A time=00:11:24.85 bitrate=N/A speed=   8x    frame=16523 fps=192 q=-0.0 size=N/A time=00:11:29.14 bitrate=N/A speed=   8x    frame=16619 fps=192 q=-0.0 size=N/A time=00:11:33.15 bitrate=N/A speed=   8x    frame=16723 fps=192 q=-0.0 size=N/A time=00:11:37.48 bitrate=N/A speed=   8x    frame=16818 fps=192 q=-0.0 size=N/A time=00:11:41.45 bitrate=N/A speed=   8x    frame=16911 fps=192 q=-0.0 size=N/A time=00:11:45.32 bitrate=N/A speed=   8x    frame=17012 fps=192 q=-0.0 size=N/A time=00:11:49.54 bitrate=N/A speed=   8x    frame=17109 fps=192 q=-0.0 size=N/A time=00:11:53.58 bitrate=N/A speed=   8x    frame=17210 fps=192 q=-0.0 size=N/A time=00:11:57.80 bitrate=N/A speed=   8x    frame=17295 fps=192 q=-0.0 size=N/A time=00:12:01.34 bitrate=N/A speed=7.99x    frame=17392 fps=192 q=-0.0 size=N/A time=00:12:05.39 bitrate=N/A speed=7.99x    frame=17488 fps=192 q=-0.0 size=N/A time=00:12:09.39 bitrate=N/A speed=7.99x    frame=17602 fps=192 q=-0.0 size=N/A time=00:12:14.15 bitrate=N/A speed=   8x    frame=17703 fps=192 q=-0.0 size=N/A time=00:12:18.36 bitrate=N/A speed=   8x    frame=17800 fps=192 q=-0.0 size=N/A time=00:12:22.40 bitrate=N/A speed=   8x    frame=17906 fps=192 q=-0.0 size=N/A time=00:12:26.82 bitrate=N/A speed=   8x    frame=18007 fps=192 q=-0.0 size=N/A time=00:12:31.04 bitrate=N/A speed=   8x    frame=18101 fps=192 q=-0.0 size=N/A time=00:12:34.96 bitrate=N/A speed=   8x    frame=18206 fps=192 q=-0.0 size=N/A time=00:12:39.34 bitrate=N/A speed=   8x    frame=18300 fps=192 q=-0.0 size=N/A time=00:12:43.26 bitrate=N/A speed=   8x    frame=18392 fps=192 q=-0.0 size=N/A time=00:12:47.09 bitrate=N/A speed=7.99x    frame=18497 fps=192 q=-0.0 size=N/A time=00:12:51.47 bitrate=N/A speed=   8x    frame=18596 fps=192 q=-0.0 size=N/A time=00:12:55.60 bitrate=N/A speed=   8x    frame=18694 fps=192 q=-0.0 size=N/A time=00:12:59.69 bitrate=N/A speed=   8x    frame=18782 fps=192 q=-0.0 size=N/A time=00:13:03.36 bitrate=N/A speed=7.99x    frame=18883 fps=192 q=-0.0 size=N/A time=00:13:07.57 bitrate=N/A speed=7.99x    frame=18986 fps=192 q=-0.0 size=N/A time=00:13:11.87 bitrate=N/A speed=7.99x    frame=19084 fps=192 q=-0.0 size=N/A time=00:13:15.96 bitrate=N/A speed=7.99x    frame=19183 fps=192 q=-0.0 size=N/A time=00:13:20.09 bitrate=N/A speed=7.99x    frame=19276 fps=192 q=-0.0 size=N/A time=00:13:23.96 bitrate=N/A speed=7.99x    frame=19377 fps=192 q=-0.0 size=N/A time=00:13:28.18 bitrate=N/A speed=7.99x    frame=19482 fps=192 q=-0.0 size=N/A time=00:13:32.56 bitrate=N/A speed=   8x    frame=19582 fps=192 q=-0.0 size=N/A time=00:13:36.73 bitrate=N/A speed=   8x    frame=19683 fps=192 q=-0.0 size=N/A time=00:13:40.94 bitrate=N/A speed=   8x    frame=19793 fps=192 q=-0.0 size=N/A time=00:13:45.53 bitrate=N/A speed=   8x    frame=19892 fps=192 q=-0.0 size=N/A time=00:13:49.66 bitrate=N/A speed=   8x    frame=19995 fps=192 q=-0.0 size=N/A time=00:13:53.95 bitrate=N/A speed=   8x    frame=20094 fps=192 q=-0.0 size=N/A time=00:13:58.08 bitrate=N/A speed=   8x    frame=20192 fps=192 q=-0.0 size=N/A time=00:14:02.17 bitrate=N/A speed=   8x    frame=20297 fps=192 q=-0.0 size=N/A time=00:14:06.55 bitrate=N/A speed=8.01x    frame=20400 fps=192 q=-0.0 size=N/A time=00:14:10.85 bitrate=N/A speed=8.01x    frame=20502 fps=192 q=-0.0 size=N/A time=00:14:15.10 bitrate=N/A speed=8.01x    frame=20604 fps=192 q=-0.0 size=N/A time=00:14:19.35 bitrate=N/A speed=8.01x    frame=20703 fps=192 q=-0.0 size=N/A time=00:14:23.48 bitrate=N/A speed=8.01x    frame=20801 fps=192 q=-0.0 size=N/A time=00:14:27.57 bitrate=N/A speed=8.01x    frame=20890 fps=192 q=-0.0 size=N/A time=00:14:31.28 bitrate=N/A speed=8.01x    frame=20999 fps=192 q=-0.0 size=N/A time=00:14:35.83 bitrate=N/A speed=8.01x    frame=21108 fps=192 q=-0.0 size=N/A time=00:14:40.37 bitrate=N/A speed=8.01x    frame=21197 fps=192 q=-0.0 size=N/A time=00:14:44.09 bitrate=N/A speed=8.01x    frame=21312 fps=192 q=-0.0 size=N/A time=00:14:48.88 bitrate=N/A speed=8.01x    frame=21413 fps=192 q=-0.0 size=N/A time=00:14:53.10 bitrate=N/A speed=8.02x    frame=21520 fps=192 q=-0.0 size=N/A time=00:14:57.56 bitrate=N/A speed=8.02x    frame=21613 fps=192 q=-0.0 size=N/A time=00:15:01.44 bitrate=N/A speed=8.02x    frame=21711 fps=192 q=-0.0 size=N/A time=00:15:05.52 bitrate=N/A speed=8.02x    frame=21807 fps=192 q=-0.0 size=N/A time=00:15:09.53 bitrate=N/A speed=8.01x    frame=21904 fps=192 q=-0.0 size=N/A time=00:15:13.57 bitrate=N/A speed=8.01x    frame=22000 fps=192 q=-0.0 size=N/A time=00:15:17.58 bitrate=N/A speed=8.01x    frame=22104 fps=192 q=-0.0 size=N/A time=00:15:21.92 bitrate=N/A speed=8.01x    frame=22212 fps=192 q=-0.0 size=N/A time=00:15:26.42 bitrate=N/A speed=8.02x    frame=22309 fps=192 q=-0.0 size=N/A time=00:15:30.47 bitrate=N/A speed=8.02x    frame=22410 fps=192 q=-0.0 size=N/A time=00:15:34.68 bitrate=N/A speed=8.02x    frame=22499 fps=192 q=-0.0 size=N/A time=00:15:38.39 bitrate=N/A speed=8.01x    frame=22600 fps=192 q=-0.0 size=N/A time=00:15:42.60 bitrate=N/A speed=8.02x    frame=22711 fps=192 q=-0.0 size=N/A time=00:15:47.23 bitrate=N/A speed=8.02x    frame=22813 fps=192 q=-0.0 size=N/A time=00:15:51.49 bitrate=N/A speed=8.02x    frame=22916 fps=192 q=-0.0 size=N/A time=00:15:55.78 bitrate=N/A speed=8.02x    frame=23015 fps=192 q=-0.0 size=N/A time=00:15:59.91 bitrate=N/A speed=8.02x    frame=23114 fps=192 q=-0.0 size=N/A time=00:16:04.04 bitrate=N/A speed=8.02x    frame=23223 fps=192 q=-0.0 size=N/A time=00:16:08.59 bitrate=N/A speed=8.02x    frame=23327 fps=192 q=-0.0 size=N/A time=00:16:12.93 bitrate=N/A speed=8.03x    frame=23428 fps=192 q=-0.0 size=N/A time=00:16:17.14 bitrate=N/A speed=8.03x    frame=23528 fps=192 q=-0.0 size=N/A time=00:16:21.31 bitrate=N/A speed=8.03x    frame=23628 fps=192 q=-0.0 size=N/A time=00:16:25.48 bitrate=N/A speed=8.03x    frame=23731 fps=192 q=-0.0 size=N/A time=00:16:29.78 bitrate=N/A speed=8.03x    frame=23831 fps=193 q=-0.0 size=N/A time=00:16:33.95 bitrate=N/A speed=8.03x    frame=23929 fps=192 q=-0.0 size=N/A time=00:16:38.03 bitrate=N/A speed=8.03x    frame=24031 fps=193 q=-0.0 size=N/A time=00:16:42.29 bitrate=N/A speed=8.03x    frame=24133 fps=193 q=-0.0 size=N/A time=00:16:46.54 bitrate=N/A speed=8.03x    frame=24232 fps=193 q=-0.0 size=N/A time=00:16:50.67 bitrate=N/A speed=8.03x    frame=24335 fps=193 q=-0.0 size=N/A time=00:16:54.97 bitrate=N/A speed=8.03x    frame=24434 fps=193 q=-0.0 size=N/A time=00:16:59.10 bitrate=N/A speed=8.03x    frame=24530 fps=193 q=-0.0 size=N/A time=00:17:03.10 bitrate=N/A speed=8.03x    frame=24630 fps=193 q=-0.0 size=N/A time=00:17:07.27 bitrate=N/A speed=8.03x    frame=24728 fps=193 q=-0.0 size=N/A time=00:17:11.36 bitrate=N/A speed=8.03x    frame=24814 fps=192 q=-0.0 size=N/A time=00:17:14.95 bitrate=N/A speed=8.03x    frame=24913 fps=192 q=-0.0 size=N/A time=00:17:19.07 bitrate=N/A speed=8.03x    frame=25018 fps=192 q=-0.0 size=N/A time=00:17:23.45 bitrate=N/A speed=8.03x    frame=25114 fps=192 q=-0.0 size=N/A time=00:17:27.46 bitrate=N/A speed=8.03x    frame=25213 fps=192 q=-0.0 size=N/A time=00:17:31.59 bitrate=N/A speed=8.03x    frame=25312 fps=192 q=-0.0 size=N/A time=00:17:35.72 bitrate=N/A speed=8.03x    frame=25410 fps=192 q=-0.0 size=N/A time=00:17:39.80 bitrate=N/A speed=8.03x    frame=25511 fps=192 q=-0.0 size=N/A time=00:17:44.02 bitrate=N/A speed=8.03x    frame=25608 fps=192 q=-0.0 size=N/A time=00:17:48.06 bitrate=N/A speed=8.03x    frame=25696 fps=192 q=-0.0 size=N/A time=00:17:51.73 bitrate=N/A speed=8.02x    frame=25804 fps=192 q=-0.0 size=N/A time=00:17:56.24 bitrate=N/A speed=8.02x    frame=25910 fps=192 q=-0.0 size=N/A time=00:18:00.66 bitrate=N/A speed=8.03x    frame=26008 fps=192 q=-0.0 size=N/A time=00:18:04.75 bitrate=N/A speed=8.03x    frame=26110 fps=192 q=-0.0 size=N/A time=00:18:09.00 bitrate=N/A speed=8.03x    frame=26206 fps=192 q=-0.0 size=N/A time=00:18:13.00 bitrate=N/A speed=8.03x    frame=26295 fps=192 q=-0.0 size=N/A time=00:18:16.72 bitrate=N/A speed=8.02x    frame=26391 fps=192 q=-0.0 size=N/A time=00:18:20.72 bitrate=N/A speed=8.02x    frame=26486 fps=192 q=-0.0 size=N/A time=00:18:24.68 bitrate=N/A speed=8.02x    frame=26580 fps=192 q=-0.0 size=N/A time=00:18:28.60 bitrate=N/A speed=8.02x    frame=26674 fps=192 q=-0.0 size=N/A time=00:18:32.52 bitrate=N/A speed=8.02x    frame=26769 fps=192 q=-0.0 size=N/A time=00:18:36.49 bitrate=N/A speed=8.02x    frame=26868 fps=192 q=-0.0 size=N/A time=00:18:40.61 bitrate=N/A speed=8.02x    frame=26966 fps=192 q=-0.0 size=N/A time=00:18:44.70 bitrate=N/A speed=8.02x    frame=27066 fps=192 q=-0.0 size=N/A time=00:18:48.87 bitrate=N/A speed=8.02x    frame=27163 fps=192 q=-0.0 size=N/A time=00:18:52.92 bitrate=N/A speed=8.02x    frame=27260 fps=192 q=-0.0 size=N/A time=00:18:56.96 bitrate=N/A speed=8.02x    frame=27360 fps=192 q=-0.0 size=N/A time=00:19:01.14 bitrate=N/A speed=8.02x    frame=27450 fps=192 q=-0.0 size=N/A time=00:19:04.89 bitrate=N/A speed=8.01x    frame=27553 fps=192 q=-0.0 size=N/A time=00:19:09.18 bitrate=N/A speed=8.01x    frame=27642 fps=192 q=-0.0 size=N/A time=00:19:12.90 bitrate=N/A speed=8.01x    frame=27742 fps=192 q=-0.0 size=N/A time=00:19:17.07 bitrate=N/A speed=8.01x    frame=27836 fps=192 q=-0.0 size=N/A time=00:19:20.99 bitrate=N/A speed=8.01x    frame=27948 fps=192 q=-0.0 size=N/A time=00:19:25.66 bitrate=N/A speed=8.01x    frame=28040 fps=192 q=-0.0 size=N/A time=00:19:29.50 bitrate=N/A speed=8.01x    frame=28137 fps=192 q=-0.0 size=N/A time=00:19:33.54 bitrate=N/A speed=8.01x    frame=28231 fps=192 q=-0.0 size=N/A time=00:19:37.46 bitrate=N/A speed=8.01x    frame=28330 fps=192 q=-0.0 size=N/A time=00:19:41.59 bitrate=N/A speed=8.01x    frame=28430 fps=192 q=-0.0 size=N/A time=00:19:45.76 bitrate=N/A speed=8.01x    frame=28530 fps=192 q=-0.0 size=N/A time=00:19:49.93 bitrate=N/A speed=8.01x    frame=28633 fps=192 q=-0.0 size=N/A time=00:19:54.23 bitrate=N/A speed=8.01x    frame=28734 fps=192 q=-0.0 size=N/A time=00:19:58.44 bitrate=N/A speed=8.01x    frame=28837 fps=192 q=-0.0 size=N/A time=00:20:02.74 bitrate=N/A speed=8.01x    frame=28939 fps=192 q=-0.0 size=N/A time=00:20:06.99 bitrate=N/A speed=8.01x    frame=29037 fps=192 q=-0.0 size=N/A time=00:20:11.08 bitrate=N/A speed=8.01x    frame=29141 fps=192 q=-0.0 size=N/A time=00:20:15.42 bitrate=N/A speed=8.01x    frame=29236 fps=192 q=-0.0 size=N/A time=00:20:19.38 bitrate=N/A speed=8.01x    frame=29337 fps=192 q=-0.0 size=N/A time=00:20:23.59 bitrate=N/A speed=8.01x    frame=29440 fps=192 q=-0.0 size=N/A time=00:20:27.89 bitrate=N/A speed=8.01x    frame=29535 fps=192 q=-0.0 size=N/A time=00:20:31.85 bitrate=N/A speed=8.01x    frame=29632 fps=192 q=-0.0 size=N/A time=00:20:35.90 bitrate=N/A speed=8.01x    frame=29736 fps=192 q=-0.0 size=N/A time=00:20:40.23 bitrate=N/A speed=8.01x    frame=29836 fps=192 q=-0.0 size=N/A time=00:20:44.40 bitrate=N/A speed=8.01x    frame=29939 fps=192 q=-0.0 size=N/A time=00:20:48.70 bitrate=N/A speed=8.02x    frame=30036 fps=192 q=-0.0 size=N/A time=00:20:52.75 bitrate=N/A speed=8.02x    frame=30144 fps=192 q=-0.0 size=N/A time=00:20:57.25 bitrate=N/A speed=8.02x    frame=30244 fps=192 q=-0.0 size=N/A time=00:21:01.42 bitrate=N/A speed=8.02x    frame=30340 fps=192 q=-0.0 size=N/A time=00:21:05.43 bitrate=N/A speed=8.02x    frame=30443 fps=192 q=-0.0 size=N/A time=00:21:09.72 bitrate=N/A speed=8.02x    frame=30540 fps=192 q=-0.0 size=N/A time=00:21:13.77 bitrate=N/A speed=8.02x    frame=30634 fps=192 q=-0.0 size=N/A time=00:21:17.69 bitrate=N/A speed=8.02x    frame=30742 fps=192 q=-0.0 size=N/A time=00:21:22.19 bitrate=N/A speed=8.02x    frame=30836 fps=192 q=-0.0 size=N/A time=00:21:26.11 bitrate=N/A speed=8.02x    frame=30937 fps=192 q=-0.0 size=N/A time=00:21:30.33 bitrate=N/A speed=8.02x    frame=31029 fps=192 q=-0.0 size=N/A time=00:21:34.16 bitrate=N/A speed=8.02x    frame=31134 fps=192 q=-0.0 size=N/A time=00:21:38.54 bitrate=N/A speed=8.02x    frame=31225 fps=192 q=-0.0 size=N/A time=00:21:42.34 bitrate=N/A speed=8.02x    frame=31328 fps=192 q=-0.0 size=N/A time=00:21:46.63 bitrate=N/A speed=8.02x    frame=31418 fps=192 q=-0.0 size=N/A time=00:21:50.39 bitrate=N/A speed=8.01x    frame=31513 fps=192 q=-0.0 size=N/A time=00:21:54.35 bitrate=N/A speed=8.01x    frame=31625 fps=192 q=-0.0 size=N/A time=00:21:59.02 bitrate=N/A speed=8.02x    frame=31721 fps=192 q=-0.0 size=N/A time=00:22:03.03 bitrate=N/A speed=8.02x    frame=31810 fps=192 q=-0.0 size=N/A time=00:22:06.74 bitrate=N/A speed=8.01x    frame=31908 fps=192 q=-0.0 size=N/A time=00:22:10.82 bitrate=N/A speed=8.01x    frame=32002 fps=192 q=-0.0 size=N/A time=00:22:14.75 bitrate=N/A speed=8.01x    frame=32102 fps=192 q=-0.0 size=N/A time=00:22:18.92 bitrate=N/A speed=8.01x    frame=32196 fps=192 q=-0.0 size=N/A time=00:22:22.84 bitrate=N/A speed=8.01x    frame=32291 fps=192 q=-0.0 size=N/A time=00:22:26.80 bitrate=N/A speed=8.01x    frame=32370 fps=192 q=-0.0 size=N/A time=00:22:30.09 bitrate=N/A speed=   8x    frame=32471 fps=192 q=-0.0 size=N/A time=00:22:34.31 bitrate=N/A speed=8.01x    frame=32558 fps=192 q=-0.0 size=N/A time=00:22:37.93 bitrate=N/A speed=   8x    frame=32656 fps=192 q=-0.0 size=N/A time=00:22:42.02 bitrate=N/A speed=   8x    frame=32747 fps=192 q=-0.0 size=N/A time=00:22:45.82 bitrate=N/A speed=   8x    frame=32845 fps=192 q=-0.0 size=N/A time=00:22:49.91 bitrate=N/A speed=   8x    frame=32940 fps=192 q=-0.0 size=N/A time=00:22:53.87 bitrate=N/A speed=   8x    frame=33029 fps=192 q=-0.0 size=N/A time=00:22:57.58 bitrate=N/A speed=   8x    frame=33126 fps=192 q=-0.0 size=N/A time=00:23:01.63 bitrate=N/A speed=   8x    frame=33213 fps=192 q=-0.0 size=N/A time=00:23:05.25 bitrate=N/A speed=7.99x    frame=33308 fps=192 q=-0.0 size=N/A time=00:23:09.22 bitrate=N/A speed=7.99x    frame=33397 fps=192 q=-0.0 size=N/A time=00:23:12.93 bitrate=N/A speed=7.99x    frame=33507 fps=192 q=-0.0 size=N/A time=00:23:17.52 bitrate=N/A speed=7.99x    frame=33601 fps=192 q=-0.0 size=N/A time=00:23:21.44 bitrate=N/A speed=7.99x    frame=33703 fps=192 q=-0.0 size=N/A time=00:23:25.69 bitrate=N/A speed=7.99x    frame=33800 fps=192 q=-0.0 size=N/A time=00:23:29.74 bitrate=N/A speed=7.99x    frame=33892 fps=192 q=-0.0 size=N/A time=00:23:33.57 bitrate=N/A speed=7.99x    frame=33987 fps=192 q=-0.0 size=N/A time=00:23:37.54 bitrate=N/A speed=7.99x    [Parsed_psnr_10 @ 00000244f79bb540] PSNR y:45.058067 u:49.508050 v:49.445394 average:46.097342 min:39.010777 max:inf
[out#0/null @ 00000244f38539c0] video:14643KiB audio:266516KiB subtitle:0KiB other streams:0KiB global headers:0KiB muxing overhead: unknown
frame=34079 fps=192 q=-0.0 Lsize=N/A time=00:23:41.37 bitrate=N/A speed=7.99x    
